<svg clip-rule="evenodd" fill-rule="evenodd" height="128" stroke-linejoin="round" stroke-miterlimit="2" width="128" xmlns="http://www.w3.org/2000/svg"><path d="m0 0h128v128h-128z" fill="#0ab6f5"/><path d="m0 85 115-85h-115z" fill="#09ff43"/><path d="m43 0 85 115v-115z" fill="#ff2440"/><g transform="matrix(1.130933 0 0 1.176471 -45.707038 63.605882)"><path d="m.261.012c-.071 0-.128-.017-.171-.051-.042-.034-.071-.078-.087-.133l.156-.059c.005.016.011.033.019.05s.019.031.033.042.031.017.052.017c.017 0 .031-.003.043-.008s.023-.013.031-.024.014-.026.018-.044.006-.04.006-.066v-.404h.17v.404c0 .085-.023.153-.068.202-.045.049-.113.074-.202.074z" fill="#fff" fill-rule="nonzero" transform="matrix(75 0 0 75 51 24)"/><path d="m.054-0v-.668h.298c.055 0 .102.006.141.018s.069.031.089.056c.021.025.031.058.031.099 0 .033-.008.061-.025.084s-.04.042-.069.056c.036.011.065.03.088.056.022.026.033.06.033.1 0 .045-.011.083-.033.112s-.054.051-.095.065-.091.021-.15.021h-.308zm.17-.141h.146c.02 0 .037-.003.05-.008.014-.005.024-.013.031-.024.007-.01.011-.023.011-.037 0-.022-.008-.039-.024-.05s-.038-.017-.069-.017h-.146v.136zm0-.267h.134c.025 0 .045-.006.058-.017.014-.011.021-.026.021-.045s-.007-.034-.02-.044-.032-.016-.057-.016h-.136z" fill="#fff" fill-rule="nonzero" transform="matrix(75 0 0 75 94.875 24)"/><path d="m70.575 28.442c-6.353 0-11.38-1.621-15.15-4.649-3.739-3.003-6.334-6.906-7.747-11.734-.512-1.75.437-3.589 2.198-4.255l11.7-4.425c.97-.367 2.056-.322 2.989.124s1.626 1.251 1.908 2.215c.303 1.037.716 2.107 1.234 3.209.369.783.858 1.443 1.487 1.966.381.316.88.415 1.456.415.699 0 1.313-.074 1.831-.284.303-.123.543-.34.748-.618.375-.51.613-1.185.793-1.996.255-1.148.369-2.552.369-4.21v-30.3c0-1.956 1.65-3.542 3.684-3.542h12.75c2.035 0 3.684 1.586 3.684 3.542v30.3c0 7.407-2.088 13.213-6.023 17.495-4.034 4.39-9.961 6.747-17.911 6.747zm0-3.542c6.7 0 11.75-1.85 15.15-5.55s5.1-8.75 5.1-15.15v-30.3h-12.75v30.3c0 1.95-.15 3.6-.45 4.95s-.762 2.45-1.387 3.3-1.4 1.463-2.325 1.838-2.013.562-3.263.562c-1.55 0-2.838-.425-3.863-1.275s-1.837-1.913-2.438-3.188c-.6-1.275-1.075-2.513-1.425-3.712l-11.7 4.425c1.2 4.1 3.387 7.425 6.562 9.975s7.437 3.825 12.788 3.825zm24.666-.9v-50.1c0-1.956 1.65-3.542 3.684-3.542h22.35c4.538 0 8.423.522 11.661 1.519 3.715 1.143 6.52 2.975 8.488 5.388 2.012 2.466 3.11 5.652 3.11 9.611 0 3.305-.884 6.082-2.536 8.362-.421.581-.884 1.134-1.388 1.657.957.731 1.826 1.558 2.608 2.48 2.178 2.568 3.341 5.81 3.341 9.775 0 4.247-1.11 7.723-3.171 10.471-2.066 2.754-5.008 4.83-8.889 6.144-3.439 1.165-7.594 1.776-12.474 1.776h-23.1c-2.035 0-3.684-1.586-3.684-3.542zm3.684 0h23.1c4.4 0 8.15-.525 11.25-1.575s5.475-2.675 7.125-4.875 2.475-5 2.475-8.4c0-3.05-.837-5.562-2.512-7.538-1.675-1.975-3.863-3.388-6.562-4.237 2.2-1.05 3.925-2.438 5.175-4.163s1.875-3.837 1.875-6.337c0-3.05-.775-5.525-2.325-7.425s-3.787-3.3-6.713-4.2c-2.925-.9-6.438-1.35-10.537-1.35h-22.35v50.1zm12.75-10.575v-10.2h10.95c2.25 0 3.963.425 5.138 1.275s1.762 2.1 1.762 3.75c0 1.1-.262 2.038-.787 2.812-.525.775-1.3 1.362-2.325 1.763-1.025.4-2.288.6-3.788.6zm3.684-3.542h7.266c.949 0 1.753-.087 2.402-.34.262-.102.489-.215.623-.414.162-.239.191-.54.191-.88 0-.386-.019-.721-.294-.92-.66-.477-1.658-.563-2.922-.563h-7.266zm-3.684-16.483v-9.15h10.2c1.85 0 3.275.387 4.275 1.163 1 .775 1.5 1.887 1.5 3.337 0 1.4-.513 2.525-1.538 3.375s-2.487 1.275-4.387 1.275zm3.684-3.542h6.366c.84 0 1.528-.039 1.981-.415.205-.17.26-.413.26-.693 0-.237.035-.454-.128-.58-.451-.349-1.129-.378-1.963-.378h-6.516v2.067z"/></g></svg>